<svg width="224" height="35" viewBox="0 0 224 35" fill="none" xmlns="http://www.w3.org/2000/svg">
  <path d="M4.56152 28.5653H9.57887C10.2571 27.2383 8.63404 28.0648 11.2316 25.5855L15.7158 21.2757C15.8502 21.1638 16.0134 21.0919 16.1867 21.0683C16.2929 21.0793 16.3921 21.1265 16.4677 21.2021C16.5432 21.2776 16.5904 21.3768 16.6014 21.483V25.2004C16.6014 27.3272 15.5381 26.8236 15.5381 28.5653H19.4625C19.4625 26.8236 18.3992 27.3272 18.3992 25.2004V17.7656C18.4881 16.8473 19.1663 16.2283 19.7854 15.6092L21.7639 15.5499C26.6627 15.6092 27.1633 21.6311 26.6627 25.5855C25.9252 26.8829 24.7138 27.031 24.7138 28.5653H29.4054C29.9385 27.7685 28.6975 27.031 28.813 25.1412C29.5505 19.919 28.1051 13.8082 21.6424 13.8082L27.1603 8.47649C28.6946 7.14651 28.9019 8.00552 30.4361 6.43857H25.4217C24.7435 7.76855 26.3666 6.94213 23.769 9.4214L19.2848 13.7283C19.1496 13.8408 18.9853 13.9127 18.8109 13.9356C18.7057 13.9241 18.6075 13.877 18.5327 13.8022C18.4578 13.7273 18.4107 13.6291 18.3992 13.5239V9.79758C18.3992 7.67376 19.4625 8.17732 19.4625 6.43265H15.5381C15.5381 8.17732 16.6014 7.67376 16.6014 9.79758V17.2324C16.5125 18.1477 15.8343 18.7668 15.2152 19.3858L13.2367 19.4451C8.33786 19.3858 7.83731 13.3669 8.33786 9.41251C9.07536 8.11512 10.2867 7.96405 10.2867 6.42969H5.5952C5.06207 7.22945 6.30308 7.96405 6.18757 9.85386C5.45007 15.079 6.89545 21.1868 13.3582 21.1868L7.84027 26.5186C6.30308 27.8663 6.09575 27.0014 4.56152 28.5653Z" fill="#D6A85A"/>
  <path d="M0 0V35H35V0H0ZM32.6779 32.6777H2.32208V2.32227H32.6779V32.6777Z" fill="#D6A85A"/>
  <path d="M76.8416 15.8556L77.3992 15.7707L77.484 15.3525H70.9326L71.0175 15.7707L71.575 15.8556C71.8977 15.869 72.2072 15.9871 72.4568 16.1919C72.7236 16.5428 72.9436 16.9268 73.1114 17.3343L77.7749 27.6948H77.9143L76.9356 30.5705C76.751 31.1399 76.5136 31.6908 76.2265 32.2159C76.1477 32.369 76.0389 32.5048 75.9067 32.6151C75.7745 32.7255 75.6215 32.8082 75.4568 32.8584C75.384 32.4612 75.1671 32.1049 74.8478 31.8578C74.5285 31.6106 74.1293 31.49 73.7265 31.519C73.525 31.5115 73.3242 31.5462 73.1368 31.6208C72.9495 31.6954 72.7798 31.8083 72.6387 31.9523C72.4999 32.0936 72.3911 32.2615 72.3188 32.4458C72.2464 32.6301 72.2119 32.8271 72.2174 33.025C72.2127 33.2453 72.2596 33.4636 72.3543 33.6625C72.449 33.8614 72.5889 34.0353 72.7629 34.1705C73.1382 34.4725 73.6086 34.6314 74.0902 34.6189C74.4556 34.6237 74.8175 34.5458 75.1486 34.391C75.4797 34.2362 75.7715 34.0085 76.0022 33.725C76.5134 33.119 76.983 32.1796 77.4113 30.9069L78.6386 27.1645L81.7113 18.8979C82.2143 17.5586 82.5749 16.7313 82.7991 16.4131C82.9381 16.2426 83.1126 16.1044 83.3104 16.0081C83.5082 15.9118 83.7246 15.8598 83.9446 15.8556L84.5052 15.7707L84.587 15.3525H79.5901L79.6719 15.7707L80.2022 15.8556C81.0103 15.9505 81.4709 16.1646 81.584 16.498C81.7052 16.8343 81.584 17.5586 81.181 18.6767L79.1719 24.2039L76.1416 17.1131C75.9386 16.6859 75.8871 16.3737 75.9901 16.1768C76.0932 15.9798 76.3871 15.8737 76.8416 15.8556Z" fill="#252525"/>
  <path d="M87.7685 16.1921L87.7412 16.5254L88.3836 16.6648C88.573 16.6884 88.7554 16.7516 88.9188 16.8503C89.0822 16.9489 89.223 17.0809 89.3321 17.2375C89.4806 17.5102 89.5563 18.0618 89.5563 18.9011V26.4768C89.5613 26.5514 89.5406 26.6255 89.4976 26.6867C89.4546 26.7479 89.3919 26.7926 89.32 26.8132C89.0318 26.8907 88.7362 26.9374 88.4382 26.9525L87.9079 26.9798L87.8261 27.4283H94.5532L94.4684 26.9798L93.632 26.9525C92.723 26.9162 92.2927 26.7768 92.2927 26.5344V20.3526C92.9795 18.2294 93.7704 17.0284 94.6654 16.7497C94.7198 17.1929 94.9356 17.6007 95.2714 17.8951C95.5928 18.1719 96.0049 18.3207 96.429 18.3133C96.6438 18.3197 96.8575 18.2794 97.0553 18.1952C97.2531 18.111 97.4302 17.9848 97.5744 17.8254C97.8684 17.5111 98.0291 17.0951 98.0229 16.6648C98.0287 16.4308 97.9829 16.1984 97.8886 15.9842C97.7943 15.77 97.6539 15.5792 97.4774 15.4254C97.1052 15.0947 96.6206 14.9191 96.1229 14.9345C95.7172 14.9391 95.3179 15.0359 94.9552 15.2175C94.5924 15.3992 94.2757 15.6609 94.029 15.983C93.423 16.68 92.8735 17.7264 92.3805 19.1223H92.2957L92.3502 14.9618L87.7685 16.1921Z" fill="#252525"/>
  <path d="M106.196 12.2829C106.499 11.9445 106.668 11.507 106.671 11.0526C106.673 10.5946 106.503 10.1525 106.196 9.81319C106.031 9.63035 105.828 9.48651 105.601 9.39214C105.374 9.29778 105.129 9.25528 104.884 9.26775C104.642 9.2568 104.402 9.30012 104.179 9.39452C103.957 9.48892 103.759 9.63198 103.599 9.81319C103.291 10.152 103.122 10.5947 103.126 11.0526C103.127 11.5069 103.295 11.9449 103.599 12.2829C103.756 12.4673 103.954 12.6134 104.177 12.71C104.399 12.8066 104.641 12.8512 104.884 12.8404C105.13 12.853 105.377 12.8093 105.604 12.7127C105.831 12.6161 106.034 12.4691 106.196 12.2829Z" fill="#252525"/>
  <path d="M101.953 16.5255L102.559 16.6649C103.062 16.777 103.383 16.9679 103.523 17.2255C103.662 17.4831 103.732 18.0346 103.732 18.871V26.4648C103.737 26.5394 103.716 26.6135 103.673 26.6747C103.63 26.7359 103.567 26.7805 103.496 26.8011C103.208 26.8787 102.914 26.9255 102.617 26.9405L102.086 26.9678L102.002 27.4163H108.356L108.274 26.9678L107.826 26.9405C107.463 26.9311 107.103 26.8844 106.75 26.8011C106.592 26.7436 106.514 26.6527 106.514 26.5224V14.9619L101.993 16.1922L101.953 16.5255Z" fill="#252525"/>
  <path d="M112.42 9.659L112.365 9.96202L113.274 10.2984C113.422 10.3208 113.564 10.3732 113.692 10.4524C113.819 10.5316 113.928 10.6359 114.014 10.759C114.168 11.1729 114.23 11.6155 114.196 12.0559V26.4618C114.202 26.535 114.183 26.6081 114.142 26.6692C114.101 26.7303 114.041 26.7758 113.971 26.7982C113.699 26.876 113.418 26.9228 113.135 26.9375L112.605 26.9648L112.52 27.4133H118.774L118.692 26.9648L118.217 26.9375C117.873 26.927 117.532 26.8803 117.198 26.7982C117.038 26.7406 116.959 26.6497 116.959 26.5194V8.42871L112.42 9.659Z" fill="#252525"/>
  <path d="M122.862 9.659L122.808 9.96202L123.717 10.2984C123.865 10.3208 124.007 10.3732 124.134 10.4524C124.261 10.5316 124.371 10.6359 124.456 10.759C124.61 11.1729 124.673 11.6155 124.638 12.0559V26.4618C124.644 26.5349 124.625 26.6077 124.584 26.6687C124.543 26.7297 124.483 26.7753 124.414 26.7982C124.141 26.876 123.86 26.9228 123.577 26.9375L123.047 26.9648L122.962 27.4133H129.217L129.132 26.9648L128.659 26.9375C128.315 26.9266 127.972 26.8799 127.638 26.7982C127.48 26.7406 127.401 26.6497 127.401 26.5194V8.42871L122.862 9.659Z" fill="#252525"/>
  <path d="M172.615 15.9679C172.009 15.279 170.967 14.9346 169.488 14.9346C168.133 14.9621 166.806 15.3266 165.627 15.9952C164.306 16.7042 163.646 17.4466 163.646 18.2315C163.646 18.4025 163.685 18.5711 163.761 18.7245C163.837 18.8779 163.946 19.0119 164.082 19.1163C164.386 19.3637 164.769 19.4929 165.161 19.48C165.558 19.4904 165.943 19.3446 166.233 19.0739C166.368 18.9583 166.476 18.8152 166.551 18.6542C166.626 18.4932 166.665 18.3181 166.667 18.1406C166.65 17.7742 166.518 17.4224 166.291 17.1345C166.155 16.9556 166.028 16.7695 165.912 16.577C165.912 16.4467 166.118 16.2921 166.518 16.1164C166.932 15.937 167.379 15.8462 167.83 15.8497C169.727 15.8497 170.648 17.0881 170.594 19.5648L170.567 20.289C168.054 20.8951 166.29 21.5516 165.276 22.2587C164.262 22.9658 163.757 23.8355 163.761 24.8678C163.755 25.2494 163.831 25.6279 163.985 25.9773C164.138 26.3267 164.366 26.6387 164.652 26.892C165.225 27.4319 165.985 27.7275 166.773 27.7162C167.888 27.7162 169.107 26.9809 170.43 25.5102L170.485 25.5375C170.634 27.0102 171.332 27.7455 172.579 27.7435C173.508 27.7435 174.486 27.0556 175.512 25.6799L175.26 25.4253C174.739 25.9102 174.327 26.1526 174.03 26.1526C173.38 26.1526 173.083 25.688 173.139 24.7587L173.388 19.6466C173.467 17.879 173.209 16.6527 172.615 15.9679ZM170.409 25.0132C170.142 25.3155 169.816 25.5604 169.451 25.7333C169.087 25.9062 168.691 26.0035 168.288 26.0193C168.048 26.0187 167.811 25.9674 167.592 25.8686C167.373 25.7699 167.178 25.6261 167.018 25.4466C166.655 25.0583 166.46 24.5419 166.476 24.0102C166.472 23.6482 166.55 23.29 166.702 22.9614C166.854 22.6329 167.077 22.3421 167.355 22.1102C167.938 21.589 169.013 21.1426 170.579 20.7708L170.409 25.0132Z" fill="#252525"/>
  <path d="M204.051 15.9679C203.445 15.279 202.403 14.9346 200.924 14.9346C199.571 14.9639 198.247 15.3283 197.07 15.9952C195.749 16.7042 195.088 17.4466 195.088 18.2315C195.087 18.4032 195.126 18.5728 195.201 18.7272C195.276 18.8817 195.386 19.0168 195.521 19.1224C195.824 19.3701 196.206 19.4993 196.597 19.486C196.994 19.4965 197.379 19.3507 197.67 19.08C197.804 18.9644 197.913 18.8213 197.988 18.6603C198.062 18.4993 198.102 18.3241 198.103 18.1466C198.086 17.7803 197.955 17.4284 197.727 17.1406C197.591 16.9623 197.466 16.7761 197.352 16.583C197.352 16.4527 197.555 16.2982 197.958 16.1224C198.372 15.9433 198.819 15.8525 199.27 15.8558C201.169 15.8558 202.091 17.0941 202.036 19.5709L202.006 20.2951C199.493 20.9012 197.729 21.5577 196.715 22.2648C195.701 22.9718 195.196 23.8415 195.2 24.8738C195.194 25.2558 195.271 25.6346 195.425 25.984C195.579 26.3335 195.807 26.6453 196.094 26.898C196.667 27.4379 197.428 27.7336 198.215 27.7223C199.334 27.7223 200.553 26.9869 201.873 25.5162L201.93 25.5435C202.076 27.0162 202.774 27.7516 204.024 27.7495C204.953 27.7495 205.93 27.0617 206.954 25.6859L206.703 25.4314C206.182 25.9162 205.778 26.1587 205.491 26.1587C204.84 26.1587 204.537 25.694 204.582 24.7647L204.833 19.6527C204.906 17.881 204.645 16.6527 204.051 15.9679ZM201.845 25.0132C201.578 25.3157 201.253 25.5609 200.888 25.7338C200.523 25.9067 200.127 26.0038 199.724 26.0193C199.484 26.0193 199.247 25.9682 199.028 25.8694C198.809 25.7707 198.613 25.6266 198.455 25.4466C198.273 25.2549 198.132 25.0294 198.038 24.7828C197.945 24.5363 197.901 24.2738 197.909 24.0102C197.906 23.6482 197.983 23.29 198.135 22.9614C198.287 22.6329 198.51 22.3421 198.788 22.1102C199.376 21.589 200.45 21.1426 202.012 20.7708L201.845 25.0132Z" fill="#252525"/>
  <path d="M223.454 26.9133C223.083 26.9042 222.724 26.7721 222.436 26.5376C222.046 26.1149 221.703 25.6505 221.415 25.1527L217.897 19.4195L218.539 18.8134C219.361 18.0025 220.224 17.2338 221.124 16.5104C221.599 16.1444 222.161 15.9084 222.754 15.8256L223.288 15.771L223.369 15.3226H217.445L217.503 15.771L217.863 15.7983C218.851 15.8751 219.345 16.1539 219.345 16.6347C219.345 17.1559 218.572 18.1235 217.027 19.5377L214.876 21.6043V8.42871L210.297 9.659L210.27 9.96202L211.179 10.2984C211.459 10.3396 211.717 10.4779 211.906 10.6893C212.04 10.9564 212.097 11.2552 212.073 11.5529V26.4618C212.075 26.5324 212.054 26.6018 212.014 26.6597C211.973 26.7175 211.915 26.7608 211.848 26.783C211.569 26.8753 211.278 26.9273 210.985 26.9375L210.482 26.9648L210.397 27.4133H216.682L216.624 26.9648L216.148 26.9375C215.791 26.9146 215.436 26.8629 215.088 26.783C215.025 26.7723 214.969 26.7401 214.928 26.6919C214.887 26.6437 214.864 26.5826 214.863 26.5194V22.277L215.93 21.3285L218.833 26.4103L219.394 27.4163H224L223.915 26.9678L223.454 26.9133Z" fill="#252525"/>
  <path d="M56.9473 19.5408V20.2983L62.1957 15.0802L62.4078 14.8711L63.2745 14.0045C64.2239 12.9934 65.236 12.0431 66.3047 11.1591C66.8872 10.7608 67.567 10.5283 68.2714 10.4864L68.8774 10.4045L68.9623 9.95605H61.7502L61.7745 10.4045L62.7805 10.4864C63.732 10.5803 64.2229 10.8227 64.2593 11.2136C64.2977 11.753 63.3492 13.0186 61.4139 15.0105L56.9473 19.5408Z" fill="#252525"/>
  <path d="M52.6473 26.8555L51.5564 26.9676L51.4746 27.4131H59.4594L59.3745 26.9676L58.3715 26.8858C57.9763 26.8639 57.5839 26.8071 57.1988 26.7161C57.0291 26.6616 56.9442 26.5767 56.9442 26.4677V20.298V19.5405V10.9982C56.9442 10.7588 57.3563 10.5982 58.1745 10.5224L59.4048 10.4133L59.4866 9.96484H51.5019L51.5867 10.4133L52.4231 10.4951C52.8134 10.5157 53.2009 10.5725 53.5806 10.6648C53.7412 10.7194 53.82 10.8012 53.82 10.9133V26.3677C53.8109 26.6252 53.4291 26.7828 52.6473 26.8555Z" fill="#252525"/>
  <path d="M62.7262 26.8854L62.0566 26.9672L61.9717 27.4126H69.7049L69.6231 26.9672L69.0171 26.9126C68.5768 26.8924 68.1536 26.7368 67.805 26.4672C67.3272 25.9477 66.9104 25.3753 66.5626 24.7612L62.0838 17.6279L59.9111 19.7885L62.6384 24.2612C62.8913 24.6654 63.12 25.0843 63.3232 25.5157C63.4428 25.7611 63.5177 26.0258 63.5444 26.2975C63.5586 26.3774 63.549 26.4596 63.5166 26.534C63.4843 26.6084 63.4307 26.6716 63.3626 26.7157C63.1631 26.8121 62.9472 26.8696 62.7262 26.8854Z" fill="#252525"/>
  <path d="M148.074 19.5408V20.2983L153.323 15.0802L153.538 14.8711L154.401 14.0045C155.352 12.9942 156.364 12.0439 157.432 11.1591C158.014 10.7612 158.694 10.5287 159.398 10.4864L160.004 10.4045L160.089 9.95605H152.877L152.904 10.4045L153.907 10.4864C154.859 10.5793 155.353 10.8217 155.389 11.2136C155.426 11.753 154.476 13.0186 152.541 15.0105L148.074 19.5408Z" fill="#252525"/>
  <path d="M143.772 26.8555L142.684 26.9676L142.6 27.4131H150.584L150.503 26.9676L149.496 26.8858C149.101 26.8639 148.709 26.8071 148.324 26.7161C148.157 26.6616 148.072 26.5767 148.072 26.4677V20.3011V19.5435L147.96 20.4102L148.072 19.5405V10.9982C148.072 10.7588 148.481 10.5982 149.284 10.5224L150.515 10.4133L150.596 9.96484H142.627L142.712 10.4133L143.548 10.4951C143.939 10.5161 144.328 10.5729 144.709 10.6648C144.866 10.7194 144.945 10.8012 144.945 10.9133V26.3677C144.945 26.6252 144.554 26.7828 143.772 26.8555Z" fill="#252525"/>
  <path d="M153.852 26.8854L153.183 26.9672L153.098 27.4126H160.834L160.749 26.9672L160.143 26.9126C159.703 26.8924 159.28 26.7368 158.931 26.4672C158.454 25.9469 158.038 25.3746 157.689 24.7612L153.204 17.6279L151.031 19.7885L153.758 24.2612C154.013 24.6647 154.241 25.0837 154.443 25.5157C154.564 25.761 154.64 26.0257 154.668 26.2975C154.682 26.3774 154.672 26.4596 154.64 26.534C154.607 26.6084 154.554 26.6716 154.486 26.7157C154.287 26.8107 154.072 26.8683 153.852 26.8854Z" fill="#252525"/>
  <path d="M182.313 16.3892C182.919 15.9801 183.561 15.3619 185.012 15.3438H179.87V19.9225H180.428L180.876 18.7104C181.306 17.671 181.716 16.8074 182.313 16.3892Z" fill="#252525"/>
  <path d="M179.315 27.413H182.194L190.064 15.7465V15.3525H187.094L179.315 27.0251V27.413Z" fill="#252525"/>
  <path d="M189.336 23.898C188.869 24.7821 188.227 25.5616 187.448 26.1889C186.721 26.7768 186.13 27.401 184.624 27.401H189.533L190.442 22.792H189.912L189.336 23.898Z" fill="#252525"/>
</svg>
