<svg xmlns="http://www.w3.org/2000/svg" viewBox="0 0 1000 1000"><defs><style>.cls-1{fill:#fff;}.cls-2{fill:none;}.cls-3{fill:#252525;}.cls-4{fill:#d6a85a;}</style></defs><g id="Layer_2" data-name="Layer 2"><g id="Layer_1-2" data-name="Layer 1"><rect class="cls-1" width="1000" height="1000"/><path class="cls-2" d="M567.08,345H436.29V475.8H567.08Zm-16.63,98.33c-.51,8.14,4.83,11.32,2.54,14.76H532.77c0-6.62,5.22-7.26,8.39-12.85,2.17-17,0-43-21.1-43.23l-8.52.25c-2.67,2.67-5.6,5.34-6,9.29v32c0,9.15,4.58,7,4.58,14.5h-16.9c0-7.51,4.58-5.35,4.58-14.5v-16c-.26-1.15-1-1.79-1.79-1.79a4,4,0,0,0-2,.9l-19.33,18.56c-11.19,10.68-4.19,7.12-7.12,12.85H445.93c6.62-6.75,7.51-3.06,14.12-8.78l23.78-23c-27.85,0-34.08-26.32-30.9-48.82.51-8.14-4.83-11.32-2.54-14.76H470.6c0,6.62-5.21,7.26-8.39,12.85-2.16,17,0,43,21.11,43.23l8.52-.25c2.67-2.67,5.6-5.34,6-9.29v-32c0-9.15-4.58-7-4.58-14.5h16.9c0,7.51-4.58,5.35-4.58,14.5v16c.26,1.15,1,1.79,1.78,1.79a4,4,0,0,0,2-.9l19.32-18.56c11.2-10.68,4.2-7.12,7.13-12.85h21.61c-6.61,6.75-7.5,3.06-14.11,8.78l-23.78,23C547.4,394.52,553.62,420.83,550.45,443.34Z"/><polygon class="cls-3" points="543.15 604.69 543.1 605.15 543.1 605.15 543.15 604.69"/><path class="cls-4" d="M557.44,362.72H535.83c-2.93,5.73,4.07,2.17-7.13,12.85l-19.32,18.56a4,4,0,0,1-2,.9c-.76,0-1.52-.64-1.78-1.79v-16c0-9.15,4.58-7,4.58-14.5h-16.9c0,7.51,4.58,5.35,4.58,14.5v32c-.38,3.95-3.31,6.62-6,9.29l-8.52.25c-21.11-.25-23.27-26.19-21.11-43.23,3.18-5.59,8.39-6.23,8.39-12.85H450.39c-2.29,3.44,3.05,6.62,2.54,14.76-3.18,22.5,3.05,48.82,30.9,48.82l-23.78,23c-6.61,5.72-7.5,2-14.12,8.78h21.62c2.93-5.73-4.07-2.17,7.12-12.85L494,426.69a4,4,0,0,1,2-.9c.77,0,1.53.64,1.79,1.79v16c0,9.15-4.58,7-4.58,14.5h16.9c0-7.51-4.58-5.35-4.58-14.5v-32c.38-3.95,3.31-6.62,6-9.29l8.52-.25c21.1.25,23.27,26.19,21.1,43.23-3.17,5.59-8.39,6.23-8.39,12.85H553c2.29-3.44-3-6.62-2.54-14.76,3.17-22.51-3.05-48.82-30.9-48.82l23.78-23C549.94,365.78,550.83,369.47,557.44,362.72Z"/><path class="cls-4" d="M426.28,485.81H577.09V335H426.28Zm10-140.8H567.08V475.8H436.29Z"/><path class="cls-3" d="M243.61,586l2.35-.36.36-1.76H218.68l.36,1.76,2.34.36a6.14,6.14,0,0,1,3.71,1.41,21.25,21.25,0,0,1,2.77,4.81l19.63,43.63h.59L244,647.94a40,40,0,0,1-3,6.94,5.45,5.45,0,0,1-3.24,2.7q-1.53-5.64-7.29-5.64a6.09,6.09,0,0,0-4.58,1.82,6.25,6.25,0,0,0-1.77,4.53,6,6,0,0,0,2.29,4.82A8.57,8.57,0,0,0,232,665a10.2,10.2,0,0,0,8.05-3.76q3.24-3.76,5.94-11.87l5.17-15.76,12.94-34.81q3.17-8.46,4.59-10.47c.94-1.32,2.54-2.11,4.82-2.34l2.35-.36.35-1.76H255.13l.36,1.76,2.23.36q5.05.59,5.82,2.7t-1.7,9.17l-8.47,23.29-12.7-29.87c-.86-1.81-1.08-3.12-.65-3.94S241.65,586.05,243.61,586Z"/><path class="cls-3" d="M289.59,587.38l-.12,1.42,2.7.58c2,.48,3.37,1.28,4,2.42s.94,3.46.94,7v31.87a1.38,1.38,0,0,1-1,1.41,17.93,17.93,0,0,1-3.7.59l-2.24.11-.35,1.89h28.34l-.36-1.89-3.52-.11q-5.65-.24-5.65-1.77v-26q4.35-13.41,10-15.17a7.62,7.62,0,0,0,2.53,4.82,7.21,7.21,0,0,0,4.88,1.76,6.25,6.25,0,0,0,4.82-2.05,7,7,0,0,0,1.88-4.89,6.72,6.72,0,0,0-2.29-5.23,8.23,8.23,0,0,0-5.7-2.06,11.29,11.29,0,0,0-8.83,4.42q-3.76,4.4-6.94,13.22h-.35l.24-17.52Z"/><path class="cls-3" d="M367.19,570.92a7.76,7.76,0,0,0,0-10.4,7,7,0,0,0-5.52-2.29,6.78,6.78,0,0,0-5.41,2.29,7.76,7.76,0,0,0,0,10.4,6.68,6.68,0,0,0,5.41,2.36A6.85,6.85,0,0,0,367.19,570.92Z"/><path class="cls-3" d="M349.32,588.8l2.58.58c2.12.48,3.47,1.26,4.06,2.36s.88,3.4.88,6.93v32a1.37,1.37,0,0,1-1,1.41,17.93,17.93,0,0,1-3.7.59l-2.24.11-.35,1.89h26.69l-.35-1.89-1.88-.11a22.55,22.55,0,0,1-4.53-.59c-.67-.24-1-.63-1-1.18V582.21l-19.05,5.17Z"/><path class="cls-3" d="M393.41,559.87l-.23,1.29,3.88,1.42a4.61,4.61,0,0,1,3.11,1.94q.76,1.35.77,5.46v60.68a1.37,1.37,0,0,1-.95,1.41,16.24,16.24,0,0,1-3.52.59l-2.24.11-.35,1.89h26.34l-.35-1.89-2-.11a20.91,20.91,0,0,1-4.29-.59c-.67-.24-1-.63-1-1.18V554.7Z"/><path class="cls-3" d="M444,632.07a16.24,16.24,0,0,1-3.53.59l-2.23.11-.35,1.89H464.2l-.36-1.89-2-.11a21.15,21.15,0,0,1-4.29-.59c-.66-.24-1-.63-1-1.18V554.7l-19.16,5.17-.24,1.29,3.88,1.42a4.64,4.64,0,0,1,3.12,1.94c.5.9.76,2.72.76,5.46v60.68A1.37,1.37,0,0,1,444,632.07Z"/><path class="cls-3" d="M646.92,586.44q-3.76-4.34-13.17-4.34a34.36,34.36,0,0,0-16.22,4.46q-8.35,4.47-8.36,9.41a4.74,4.74,0,0,0,1.82,3.76,6.83,6.83,0,0,0,4.54,1.53,6.34,6.34,0,0,0,4.52-1.71,5.21,5.21,0,0,0,1.83-3.93,7.4,7.4,0,0,0-1.59-4.23A23.23,23.23,0,0,1,618.7,589c0-.54.86-1.19,2.59-1.94a13.83,13.83,0,0,1,5.53-1.11q12,0,11.64,15.63l-.12,3.06q-15.89,3.76-22.29,8.29t-6.4,11a11.14,11.14,0,0,0,3.76,8.53,12.75,12.75,0,0,0,8.93,3.47q7.06,0,15.41-9.29l.24.12q.93,9.29,8.81,9.29,5.88,0,12.35-8.7l-1.06-1.06c-2.19,2-3.92,3.05-5.17,3.05-2.75,0-4-2-3.76-5.87L650.21,602Q650.69,590.79,646.92,586.44Zm-9.29,38.1q-4.23,4.25-8.93,4.24a7.16,7.16,0,0,1-5.35-2.42,8.41,8.41,0,0,1-2.3-6.05,10.29,10.29,0,0,1,3.71-8q3.71-3.28,13.58-5.64Z"/><path class="cls-3" d="M779.32,586.44q-3.77-4.34-13.17-4.34a34.42,34.42,0,0,0-16.23,4.46q-8.34,4.47-8.35,9.41a4.72,4.72,0,0,0,1.83,3.76,6.78,6.78,0,0,0,4.52,1.53,6.35,6.35,0,0,0,4.53-1.71,5.25,5.25,0,0,0,1.83-3.93,7.4,7.4,0,0,0-1.59-4.23A23.23,23.23,0,0,1,751.1,589c0-.54.86-1.19,2.59-1.94a13.82,13.82,0,0,1,5.52-1.11q12,0,11.65,15.63l-.12,3.06q-15.88,3.76-22.29,8.29T742,624a11.15,11.15,0,0,0,3.77,8.53,12.75,12.75,0,0,0,8.93,3.47q7.07,0,15.41-9.29l.23.12q.95,9.29,8.82,9.29,5.88,0,12.35-8.7l-1.06-1.06c-2.19,2-3.92,3.05-5.17,3.05-2.75,0-4-2-3.77-5.87L782.61,602Q783.09,590.79,779.32,586.44ZM770,624.54q-4.23,4.25-8.94,4.24a7.14,7.14,0,0,1-5.34-2.42,8.41,8.41,0,0,1-2.3-6.05,10.31,10.31,0,0,1,3.7-8q3.72-3.28,13.59-5.64Z"/><path class="cls-3" d="M861,632.54a7.06,7.06,0,0,1-4.29-1.59,32.5,32.5,0,0,1-4.29-5.82L837.64,601l2.7-2.59a141.13,141.13,0,0,1,10.88-9.7,14.46,14.46,0,0,1,6.88-2.88l2.24-.24.35-1.88H835.76l.24,1.88,1.52.12q6.24.48,6.24,3.52,0,3.3-9.76,12.24l-9.06,8.7V554.7l-19.28,5.17-.12,1.29,3.88,1.42a5.07,5.07,0,0,1,3.06,1.64,6.94,6.94,0,0,1,.7,3.65v62.79a1.4,1.4,0,0,1-.94,1.35,13.4,13.4,0,0,1-3.64.65l-2.12.11-.35,1.89h26.46l-.24-1.89-2-.11a30.13,30.13,0,0,1-4.47-.65,1.13,1.13,0,0,1-.94-1.12V613l4.35-4,12.23,21.4,2.35,4.24h19.4l-.35-1.89Z"/><path class="cls-3" d="M159.77,601.49v3.2l22.11-22,0,0,.9-.88,3.65-3.64q9.51-9.65,12.75-12a16.48,16.48,0,0,1,8.29-2.82l2.59-.35.35-1.88H180l.11,1.88,4.24.35c4,.39,6.07,1.41,6.23,3.06q.24,3.4-12,16Z"/><path class="cls-3" d="M141.66,632.3l-4.58.47-.35,1.88h33.62l-.35-1.88-4.23-.35a29.05,29.05,0,0,1-4.94-.7c-.7-.24-1.06-.59-1.06-1.06v-26h0v-3.2l-.46,3.66h0l.47-3.65v-36q0-1.51,5.18-2l5.17-.46.35-1.88H136.84l.36,1.88,3.52.35a27.13,27.13,0,0,1,4.88.7c.67.24,1,.59,1,1.06V630.3C146.61,631.33,145,632,141.66,632.3Z"/><path class="cls-3" d="M184.11,632.42l-2.82.35-.35,1.88h32.57l-.35-1.88-2.59-.23a8.89,8.89,0,0,1-5.11-1.88q-1.71-1.53-5.24-7.18l-18.86-30-9.15,9.1,11.43,18.83a49.74,49.74,0,0,1,2.88,5.29,9.67,9.67,0,0,1,.94,3.29,1.76,1.76,0,0,1-.76,1.77A7.63,7.63,0,0,1,184.11,632.42Z"/><path class="cls-3" d="M563.91,563.05l4.23.35c4,.39,6.07,1.41,6.23,3.06q.24,3.4-12,16l-18.81,19v3.2l22.1-22,0,0,.9-.88,3.65-3.64q9.51-9.65,12.76-12a16.41,16.41,0,0,1,8.28-2.82l2.59-.35.36-1.88H563.79Z"/><path class="cls-3" d="M525.45,632.3l-4.58.47-.35,1.88h33.63l-.36-1.88-4.23-.35a29.24,29.24,0,0,1-4.94-.7c-.7-.24-1.06-.59-1.06-1.06v-26h0V601.5h0v-36q0-1.51,5.18-2l5.17-.46.36-1.88H520.64l.35,1.88,3.53.35a27.12,27.12,0,0,1,4.87.7c.67.24,1,.59,1,1.06V630.3C530.4,631.33,528.75,632,525.45,632.3Zm17.7-27.61,0,.46h0Z"/><path class="cls-3" d="M567.9,632.42l-2.82.35-.35,1.88H597.3l-.35-1.88-2.59-.23a8.89,8.89,0,0,1-5.11-1.88q-1.71-1.53-5.24-7.18l-18.86-30-9.15,9.1,11.43,18.83a48.36,48.36,0,0,1,2.89,5.29,9.62,9.62,0,0,1,.93,3.29,1.76,1.76,0,0,1-.76,1.77A7.63,7.63,0,0,1,567.9,632.42Z"/><path class="cls-3" d="M687.76,588.26c2.51-1.72,5.27-4.33,11.38-4.4H677.49v19.28h2.35l1.88-5C683.53,593.62,685.25,590,687.76,588.26Z"/><polygon class="cls-3" points="675.14 634.65 687.27 634.65 720.41 585.51 720.41 583.86 707.91 583.86 675.14 633.01 675.14 634.65"/><path class="cls-3" d="M717.35,619.84a30.8,30.8,0,0,1-8,9.65c-3,2.47-5.54,5.09-11.89,5.17h20.67l3.89-19.41h-2.24Z"/></g></g></svg>