<svg width="116" height="17" viewBox="0 0 116 17" fill="none" xmlns="http://www.w3.org/2000/svg">
  <path d="M16.4729 9.72917C16.3406 11.0069 15.9106 12.1389 15.1829 13.125C14.4684 14.0972 13.529 14.8542 12.3646 15.3958C11.2003 15.9375 9.87054 16.2083 8.3754 16.2083C6.70826 16.2083 5.2462 15.8681 3.98923 15.1875C2.73226 14.5069 1.75315 13.5625 1.05189 12.3542C0.350629 11.1319 0 9.71528 0 8.10417C0 6.49306 0.350629 5.08333 1.05189 3.875C1.75315 2.65278 2.73226 1.70139 3.98923 1.02083C5.2462 0.340278 6.70826 0 8.3754 0C9.87054 0 11.2003 0.270834 12.3646 0.812501C13.529 1.35417 14.4684 2.11111 15.1829 3.08333C15.9106 4.05556 16.3406 5.1875 16.4729 6.47917H13.8333C13.6878 5.64583 13.3702 4.93056 12.8807 4.33333C12.4043 3.73611 11.7825 3.27778 11.015 2.95833C10.2476 2.625 9.36113 2.45833 8.35556 2.45833C7.1912 2.45833 6.17901 2.6875 5.31898 3.14583C4.47217 3.60417 3.81723 4.25694 3.35413 5.10417C2.89104 5.95139 2.65949 6.95139 2.65949 8.10417C2.65949 9.25695 2.89104 10.2569 3.35413 11.1042C3.81723 11.9514 4.47217 12.6042 5.31898 13.0625C6.17901 13.5208 7.1912 13.75 8.35556 13.75C9.36113 13.75 10.2476 13.5903 11.015 13.2708C11.7825 12.9514 12.4043 12.4931 12.8807 11.8958C13.3702 11.2847 13.6878 10.5625 13.8333 9.72917H16.4729Z" fill="black"/>
  <path d="M20.1829 12.3333V10.0625H30.5827V12.3333H20.1829ZM27.0897 0.291667L34.2346 15.9167H31.4361L24.9462 1.33333H25.9584L19.4684 15.9167H16.67L23.8149 0.291667H27.0897Z" fill="black"/>
  <path d="M34.4188 10.8333H37.0782C37.1576 11.4583 37.4024 12.0069 37.8126 12.4792C38.236 12.9514 38.7917 13.3194 39.4797 13.5833C40.1677 13.8333 40.9616 13.9583 41.8613 13.9583C43.1977 13.9583 44.2562 13.7431 45.0369 13.3125C45.8175 12.8681 46.2078 12.2708 46.2078 11.5208C46.2078 10.9097 45.9829 10.4514 45.533 10.1458C45.0832 9.84028 44.2694 9.61111 43.0919 9.45833L39.8767 9.02083C38.0772 8.77083 36.7673 8.30556 35.947 7.625C35.1399 6.93056 34.7363 5.95139 34.7363 4.6875C34.7363 3.72917 35.0075 2.90278 35.55 2.20833C36.1057 1.5 36.8864 0.958333 37.892 0.583333C38.8975 0.194444 40.0751 0 41.4247 0C42.7611 0 43.9453 0.208334 44.9773 0.625001C46.0094 1.04167 46.8297 1.625 47.4383 2.375C48.0602 3.11111 48.3976 3.97917 48.4505 4.97917H45.791C45.7249 4.42361 45.5 3.94445 45.1162 3.54167C44.7458 3.13889 44.243 2.82639 43.6079 2.60417C42.9728 2.36806 42.2252 2.25 41.3652 2.25C40.1479 2.25 39.1754 2.45833 38.4477 2.875C37.72 3.29167 37.3561 3.86111 37.3561 4.58333C37.3561 5.13889 37.5678 5.56945 37.9912 5.875C38.4278 6.16667 39.182 6.38889 40.2537 6.54167L43.5086 7.02083C44.845 7.21528 45.8969 7.47917 46.6643 7.8125C47.445 8.13195 48.0007 8.56945 48.3314 9.125C48.6622 9.66667 48.8276 10.3681 48.8276 11.2292C48.8276 12.2292 48.5365 13.1042 47.9544 13.8542C47.3722 14.6042 46.5518 15.1875 45.4933 15.6042C44.4481 16.0069 43.2242 16.2083 41.8217 16.2083C40.3927 16.2083 39.1291 15.9861 38.0309 15.5417C36.9459 15.0833 36.0859 14.4514 35.4508 13.6458C34.8157 12.8403 34.4717 11.9028 34.4188 10.8333Z" fill="black"/>
  <path d="M52.5505 12.3333V10.0625H62.9503V12.3333H52.5505ZM59.4572 0.291667L66.6021 15.9167H63.8037L57.3137 1.33333H58.3259L51.836 15.9167H49.0376L56.1825 0.291667H59.4572Z" fill="black"/>
  <path d="M73.4572 9.95833H76.6525L83.2616 17H80.0067L73.4572 9.95833ZM75.3426 16.2083C73.649 16.2083 72.1605 15.8681 70.8771 15.1875C69.5937 14.5069 68.5947 13.5625 67.8802 12.3542C67.1657 11.1319 66.8085 9.71528 66.8085 8.10417C66.8085 6.49306 67.1657 5.08333 67.8802 3.875C68.5947 2.65278 69.5937 1.70139 70.8771 1.02083C72.1605 0.340278 73.649 0 75.3426 0C77.0362 0 78.5248 0.340278 79.8082 1.02083C81.0916 1.70139 82.0906 2.65278 82.8051 3.875C83.5196 5.08333 83.8768 6.49306 83.8768 8.10417C83.8768 9.71528 83.5196 11.1319 82.8051 12.3542C82.0906 13.5625 81.0916 14.5069 79.8082 15.1875C78.5248 15.8681 77.0362 16.2083 75.3426 16.2083ZM75.3426 13.75C76.5467 13.75 77.5853 13.5208 78.4586 13.0625C79.3319 12.6042 80.0067 11.9514 80.483 11.1042C80.9726 10.2569 81.2173 9.25695 81.2173 8.10417C81.2173 6.95139 80.9726 5.95139 80.483 5.10417C80.0067 4.25694 79.3319 3.60417 78.4586 3.14583C77.5853 2.6875 76.5467 2.45833 75.3426 2.45833C74.1518 2.45833 73.1132 2.6875 72.2267 3.14583C71.3534 3.60417 70.672 4.25694 70.1824 5.10417C69.7061 5.95139 69.468 6.95139 69.468 8.10417C69.468 9.25695 69.7061 10.2569 70.1824 11.1042C70.672 11.9514 71.3534 12.6042 72.2267 13.0625C73.1132 13.5208 74.1518 13.75 75.3426 13.75Z" fill="black"/>
  <path d="M88.8434 9.20833C88.8434 10.1389 89.022 10.9444 89.3792 11.625C89.7365 12.3056 90.2459 12.8333 90.9074 13.2083C91.5822 13.5694 92.3827 13.75 93.3089 13.75C94.2483 13.75 95.0488 13.5694 95.7104 13.2083C96.372 12.8333 96.8814 12.3056 97.2386 11.625C97.5959 10.9444 97.7745 10.1389 97.7745 9.20833V0.291667H100.394V9.3125C100.394 10.6875 100.097 11.8958 99.5012 12.9375C98.9058 13.9653 98.0788 14.7708 97.0203 15.3542C95.9618 15.9236 94.7247 16.2083 93.3089 16.2083C91.9064 16.2083 90.6693 15.9236 89.5975 15.3542C88.539 14.7708 87.7121 13.9653 87.1167 12.9375C86.5213 11.8958 86.2236 10.6875 86.2236 9.3125V0.291667H88.8434V9.20833Z" fill="black"/>
  <path d="M115.424 6.95833V9.25H105.025V6.95833H115.424ZM106.751 8.10417L105.699 15.0833L104.449 13.5417H116V15.9167H103.02L104.211 8.10417L103.02 0.291667H115.901V2.66667H104.449L105.699 1.125L106.751 8.10417Z" fill="black"/>
</svg>
