<svg width="24" height="24" viewBox="0 0 24 24" fill="none" xmlns="http://www.w3.org/2000/svg">
  <path d="M21 5.84615C20.325 6.21538 19.65 6.33846 18.8625 6.46154C19.65 5.96923 20.2125 5.23077 20.4375 4.24615C19.7625 4.73846 18.975 4.98462 18.075 5.23077C17.4 4.49231 16.3875 4 15.375 4C13.0125 4 11.2125 6.46154 11.775 8.92308C8.7375 8.8 6.0375 7.2 4.125 4.73846C3.1125 6.58462 3.675 8.92308 5.25 10.1538C4.6875 10.1538 4.125 9.90769 3.5625 9.66154C3.5625 11.5077 4.8 13.2308 6.4875 13.7231C5.925 13.8462 5.3625 13.9692 4.8 13.8462C5.25 15.4462 6.6 16.6769 8.2875 16.6769C6.9375 17.7846 4.9125 18.4 3 18.1538C4.6875 19.2615 6.6 20 8.625 20C15.4875 20 19.3125 13.7231 19.0875 7.93846C19.875 7.44615 20.55 6.70769 21 5.84615Z" fill="black"/>
</svg>
