<svg width="24" height="24" viewBox="0 0 24 24" fill="none" xmlns="http://www.w3.org/2000/svg">
  <path fill-rule="evenodd" clip-rule="evenodd" d="M20.25 4.22862C21.125 4.51434 21.75 5.22862 22 6.22862C22.5 8.08576 22.5 11.8 22.5 11.8C22.5 11.8 22.5 15.5143 22.125 17.3715C21.875 18.3715 21.25 19.0858 20.375 19.3715C18.75 19.8 12.5 19.8 12.5 19.8C12.5 19.8 6.125 19.8 4.625 19.3715C3.75 19.0858 3.125 18.3715 2.875 17.3715C2.5 15.5143 2.5 11.8 2.5 11.8C2.5 11.8 2.5 8.08576 2.75 6.22862C3 5.22862 3.62501 4.51434 4.50001 4.22862C6.12501 3.80005 12.375 3.80005 12.375 3.80005C12.375 3.80005 18.75 3.80005 20.25 4.22862ZM10.5002 9.13378L15.8335 11.8005L10.5002 14.4671V9.13378Z" fill="#000000"/>
</svg>
