<svg width="24" height="24" viewBox="0 0 24 24" fill="none" xmlns="http://www.w3.org/2000/svg">
  <path fill-rule="evenodd" clip-rule="evenodd" d="M20.25 4.2285C21.125 4.51421 21.75 5.2285 22 6.2285C22.5 8.08564 22.5 11.7999 22.5 11.7999C22.5 11.7999 22.5 15.5142 22.125 17.3714C21.875 18.3714 21.25 19.0856 20.375 19.3714C18.75 19.7999 12.5 19.7999 12.5 19.7999C12.5 19.7999 6.125 19.7999 4.625 19.3714C3.75 19.0856 3.125 18.3714 2.875 17.3714C2.5 15.5142 2.5 11.7999 2.5 11.7999C2.5 11.7999 2.5 8.08564 2.75 6.2285C3 5.2285 3.62501 4.51421 4.50001 4.2285C6.12501 3.79993 12.375 3.79993 12.375 3.79993C12.375 3.79993 18.75 3.79993 20.25 4.2285ZM10.5002 9.13366L15.8335 11.8003L10.5002 14.467V9.13366Z" fill="black"/>
</svg>
